# xmcd
#
# Track frame offsets:
#	225
#	10523
#	23541
#	36456
#	51150
#	64755
#	79850
#	90450
#	100000
#	118812
#	134955
#	148189
#
# Disc length: 2182 seconds
#
# Revision: 1
# Processed by: cddbd v1.5.2PL0 Copyright (c) Steve Scherf et al.
# Submitted via: audiograbber 1.83.01
#
DISCID=a208830c
DTITLE=Gerry Black - The Lamp
DYEAR=1900
DGENRE=
TTITLE0=The Lamp
TTITLE1=Lay Down Beside Me
TTITLE2=Angeline
TTITLE3=Why Me Lord
TTITLE4=Don't Let Me Cross Over
TTITLE5=Man Of The Word
TTITLE6=He'll Have To Go
TTITLE7=It Takes People Like You
TTITLE8=Serenaded By Angels
TTITLE9=My Elusive Dreams
TTITLE10=I Recall A Gypsy Woman
TTITLE11=Yard Sale
EXTD=
EXTT0=
EXTT1=
EXTT2=
EXTT3=
EXTT4=
EXTT5=
EXTT6=
EXTT7=
EXTT8=
EXTT9=
EXTT10=
EXTT11=
PLAYORDER=
